<?xml version="1.0" encoding="UTF-8"?>
<svg width="60px" height="60px" viewBox="0 0 60 60" version="1.1" xmlns="http://www.w3.org/2000/svg" xmlns:xlink="http://www.w3.org/1999/xlink">
    <g id="页面-1" stroke="none" stroke-width="1" fill="none" fill-rule="evenodd" opacity="0.3">
        <g id="icon" transform="translate(-271.000000, -380.000000)" fill="currentColor" fill-rule="nonzero">
            <path d="M321.177734,435 L321.177734,423.652344 L299.439453,423.652344 C300.715495,422.399089 301.826335,421.385091 302.771973,420.610352 C303.717611,419.835612 305.591797,418.479818 308.394531,416.542969 C313.111328,413.216146 316.364095,410.16276 318.152832,407.382812 C319.941569,404.602865 320.835938,401.686198 320.835938,398.632812 C320.835938,395.761719 320.055501,393.169759 318.494629,390.856934 C316.933757,388.544108 314.791829,386.829427 312.068848,385.712891 C309.345866,384.596354 305.534831,384.038086 300.635742,384.038086 C295.941732,384.038086 292.267415,384.624837 289.612793,385.79834 C286.958171,386.971842 284.901693,388.65804 283.443359,390.856934 C281.985026,393.055827 280.982422,396.114909 280.435547,400.03418 L280.435547,400.03418 L294.380859,401.162109 C294.768229,398.336589 295.525879,396.36556 296.653809,395.249023 C297.781738,394.132487 299.234375,393.574219 301.011719,393.574219 C302.720703,393.574219 304.13916,394.115397 305.26709,395.197754 C306.39502,396.280111 306.958984,397.584635 306.958984,399.111328 C306.958984,400.524089 306.389323,402.016602 305.25,403.588867 C304.110677,405.161133 301.501628,407.462565 297.422852,410.493164 C290.746419,415.437826 286.194824,419.727376 283.768066,423.361816 C281.341309,426.996257 279.888672,430.875651 279.410156,435 L279.410156,435 L321.177734,435 Z" id="2备份"></path>
        </g>
    </g>
</svg>