<?xml version="1.0" encoding="UTF-8"?>
<svg width="60px" height="60px" viewBox="0 0 60 60" version="1.1" xmlns="http://www.w3.org/2000/svg" xmlns:xlink="http://www.w3.org/1999/xlink">
    <g id="页面-1" stroke="none" stroke-width="1" fill="none" fill-rule="evenodd" opacity="0.3">
        <g id="icon" transform="translate(-127.000000, -454.000000)" fill="currentColor" fill-rule="nonzero">
            <path d="M157.652344,509.854492 C162.323568,509.854492 166.094727,509.131022 168.96582,507.684082 C171.836914,506.237142 174.035807,504.174967 175.5625,501.497559 C177.089193,498.82015 177.852539,496.023112 177.852539,493.106445 C177.852539,490.782227 177.391113,488.782715 176.468262,487.10791 C175.54541,485.433105 174.252279,484.083008 172.588867,483.057617 C171.563477,482.419596 170.082357,481.861328 168.145508,481.382812 C170.538086,480.061198 172.326823,478.523112 173.511719,476.768555 C174.696615,475.013997 175.289062,473.054362 175.289062,470.889648 C175.289062,467.198242 173.830729,464.133464 170.914062,461.695312 C167.997396,459.257161 163.269206,458.038086 156.729492,458.038086 C151.032878,458.038086 146.629395,459.154622 143.519043,461.387695 C140.408691,463.620768 138.306641,466.833659 137.212891,471.026367 L137.212891,471.026367 L150.37207,473.384766 C150.736654,470.901042 151.431641,469.163574 152.457031,468.172363 C153.482422,467.181152 154.81543,466.685547 156.456055,466.685547 C158.051107,466.685547 159.304362,467.141276 160.21582,468.052734 C161.127279,468.964193 161.583008,470.183268 161.583008,471.709961 C161.583008,473.305013 160.97347,474.683594 159.754395,475.845703 C158.535319,477.007812 157.014323,477.588867 155.191406,477.588867 C154.758464,477.588867 154.154622,477.531901 153.379883,477.417969 L153.379883,477.417969 L152.662109,487.364258 C154.576172,486.817383 156.080078,486.543945 157.173828,486.543945 C159.224609,486.543945 160.848145,487.181966 162.044434,488.458008 C163.240723,489.734049 163.838867,491.53418 163.838867,493.858398 C163.838867,496.137044 163.217936,497.959961 161.976074,499.327148 C160.734212,500.694336 159.179036,501.37793 157.310547,501.37793 C155.533203,501.37793 154.069173,500.836751 152.918457,499.754395 C151.767741,498.672038 150.918945,496.729492 150.37207,493.926758 L150.37207,493.926758 L136.460938,495.772461 C137.372396,498.894206 138.676921,501.486165 140.374512,503.54834 C142.072103,505.610514 144.236816,507.177083 146.868652,508.248047 C149.500488,509.31901 153.095052,509.854492 157.652344,509.854492 Z" id="3备份"></path>
        </g>
    </g>
</svg>